<svg width="90" height="17" viewBox="0 0 90 17" fill="none" xmlns="http://www.w3.org/2000/svg">
<path d="M8.176 9.13C8.52133 9.20467 8.694 9.37733 8.694 9.648C8.33933 10.292 7.90533 10.8147 7.392 11.216C6.87867 11.6173 6.39333 11.8833 5.936 12.014C5.47867 12.1447 5.00733 12.21 4.522 12.21C3.42067 12.21 2.49667 11.79 1.75 10.95C1.00333 10.11 0.63 8.88733 0.63 7.282C0.63 5.49 1.092 3.964 2.016 2.704C2.47333 2.09733 3.05667 1.61667 3.766 1.262C4.48467 0.897999 5.31067 0.715999 6.244 0.715999C7.18667 0.715999 7.90067 0.967999 8.386 1.472C8.88067 1.96667 9.128 2.55467 9.128 3.236C9.128 3.908 8.94133 4.45867 8.568 4.888C8.19467 5.308 7.70933 5.518 7.112 5.518C6.90667 5.518 6.66867 5.48067 6.398 5.406C6.594 5.16333 6.76667 4.818 6.916 4.37C7.06533 3.922 7.14 3.49733 7.14 3.096C7.14 2.69467 7.04667 2.368 6.86 2.116C6.67333 1.864 6.37933 1.738 5.978 1.738C5.362 1.738 4.80667 2.02267 4.312 2.592C3.81733 3.16133 3.44867 3.86133 3.206 4.692C2.96333 5.52267 2.842 6.38133 2.842 7.268C2.842 8.46267 3.07533 9.368 3.542 9.984C4.00867 10.6 4.606 10.908 5.334 10.908C5.79133 10.908 6.26733 10.754 6.762 10.446C7.25667 10.138 7.728 9.69933 8.176 9.13ZM14.9453 4.986C14.3387 4.986 13.7973 5.39667 13.3213 6.218C12.8453 7.03 12.6073 7.842 12.6073 8.654C12.6073 10.3527 13.046 11.202 13.9233 11.202C14.5487 11.202 15.0573 10.796 15.4493 9.984C15.8413 9.16267 16.0373 8.24333 16.0373 7.226C16.0373 5.73267 15.6733 4.986 14.9453 4.986ZM13.7553 3.726C13.858 3.726 13.9513 3.75867 14.0353 3.824C14.1287 3.88 14.1753 3.94067 14.1753 4.006C13.2327 4.65933 12.668 5.56933 12.4813 6.736C12.6773 6.21333 12.9153 5.76067 13.1953 5.378C13.4847 4.99533 13.7833 4.706 14.0913 4.51C14.6793 4.146 15.2533 3.964 15.8133 3.964C16.3733 3.964 16.8493 4.23933 17.2413 4.79C17.6333 5.34067 17.8293 6.078 17.8293 7.002C17.8293 8.038 17.6193 8.99 17.1993 9.858C16.7327 10.838 16.07 11.5147 15.2113 11.888C14.726 12.1027 14.194 12.21 13.6153 12.21C12.8033 12.21 12.094 11.8973 11.4873 11.272C10.89 10.6373 10.5913 9.732 10.5913 8.556C10.5913 7.37067 10.8807 6.33 11.4593 5.434C12.038 4.52867 12.8033 3.95933 13.7553 3.726ZM25.84 10.516C25.84 10.9827 25.868 11.4773 25.924 12C25.6253 12.0187 25.4293 12.028 25.336 12.028C24.8133 12.028 24.4353 11.9393 24.202 11.762C23.9686 11.5753 23.852 11.3047 23.852 10.95C23.852 10.5953 23.95 9.86733 24.146 8.766C24.3513 7.65533 24.454 6.81533 24.454 6.246C24.454 5.66733 24.2673 5.378 23.894 5.378C23.6886 5.378 23.4646 5.504 23.222 5.756C22.9793 5.99867 22.7506 6.33467 22.536 6.764C22.3213 7.184 22.1393 7.72533 21.99 8.388C21.85 9.05067 21.78 9.69 21.78 10.306C21.78 10.9127 21.808 11.4773 21.864 12C21.5653 12.0187 21.3693 12.028 21.276 12.028C20.7533 12.028 20.3753 11.9393 20.142 11.762C19.9086 11.5753 19.792 11.2673 19.792 10.838C19.792 10.7353 19.8853 10.04 20.072 8.752C20.268 7.464 20.366 6.44667 20.366 5.7C20.366 4.944 20.2866 4.25333 20.128 3.628C20.8186 3.84267 21.2993 4.15067 21.57 4.552C21.8406 4.95333 21.976 5.448 21.976 6.036C21.976 6.33467 21.9433 6.71267 21.878 7.17C22.1953 6.23667 22.634 5.462 23.194 4.846C23.7633 4.23 24.3093 3.922 24.832 3.922C25.364 3.922 25.7466 4.118 25.98 4.51C26.2226 4.902 26.344 5.46667 26.344 6.204C26.6986 5.52267 27.1046 4.972 27.562 4.552C28.0193 4.132 28.4393 3.922 28.822 3.922C29.3913 3.922 29.7926 4.09467 30.026 4.44C30.2686 4.776 30.39 5.238 30.39 5.826C30.39 6.40467 30.2966 7.22133 30.11 8.276C29.9326 9.33067 29.844 10.1007 29.844 10.586C29.844 11.062 29.9046 11.412 30.026 11.636C30.1473 11.8507 30.3526 12.0373 30.642 12.196C30.5206 12.2053 30.348 12.21 30.124 12.21C29.34 12.21 28.78 12.0887 28.444 11.846C28.1173 11.6033 27.954 11.1787 27.954 10.572C27.954 10.2267 28.0473 9.55467 28.234 8.556C28.4206 7.548 28.514 6.79667 28.514 6.302C28.514 5.686 28.3273 5.378 27.954 5.378C27.674 5.378 27.3706 5.58333 27.044 5.994C26.7266 6.39533 26.4466 7.00667 26.204 7.828C25.9613 8.64 25.84 9.536 25.84 10.516ZM35.2134 5.042C35.2134 5.182 35.0967 5.91933 34.8634 7.254C34.6394 8.57933 34.5227 9.676 34.5134 10.544C34.5134 11.4027 34.5694 11.958 34.6814 12.21C33.9534 12.0233 33.4634 11.7433 33.2114 11.37C32.9594 10.9873 32.8334 10.432 32.8334 9.704C32.8334 9.312 32.9081 8.60267 33.0574 7.576C33.2067 6.54933 33.2814 5.75133 33.2814 5.182C33.2814 4.61267 33.2534 4.174 33.1974 3.866C33.4027 3.84733 33.5941 3.838 33.7714 3.838C34.3127 3.838 34.6861 3.93133 34.8914 4.118C35.1061 4.29533 35.2134 4.60333 35.2134 5.042ZM35.4234 2.606C35.1621 2.64333 34.9334 2.662 34.7374 2.662C33.7761 2.662 33.2954 2.326 33.2954 1.654C33.2954 1.41133 33.3654 1.08 33.5054 0.659999C33.7667 0.622666 33.9954 0.604 34.1914 0.604C35.1527 0.604 35.6334 0.94 35.6334 1.612C35.6334 1.85467 35.5634 2.186 35.4234 2.606ZM42.6654 3.922C43.2161 3.922 43.6081 4.09467 43.8414 4.44C44.0841 4.776 44.2054 5.238 44.2054 5.826C44.2054 6.40467 44.1121 7.22133 43.9254 8.276C43.7481 9.33067 43.6594 10.1007 43.6594 10.586C43.6594 11.062 43.7201 11.412 43.8414 11.636C43.9628 11.8507 44.1681 12.0373 44.4574 12.196C44.3361 12.2053 44.1634 12.21 43.9394 12.21C43.1554 12.21 42.5954 12.0887 42.2594 11.846C41.9328 11.6033 41.7694 11.1787 41.7694 10.572C41.7694 10.2267 41.8628 9.55467 42.0494 8.556C42.2361 7.548 42.3294 6.79667 42.3294 6.302C42.3294 5.686 42.1428 5.378 41.7694 5.378C41.5548 5.378 41.3121 5.504 41.0414 5.756C40.7708 6.008 40.5094 6.35333 40.2574 6.792C40.0054 7.22133 39.7954 7.77667 39.6274 8.458C39.4594 9.13933 39.3754 9.82067 39.3754 10.502C39.3754 11.174 39.4034 11.6733 39.4594 12C39.1608 12.0187 38.9648 12.028 38.8714 12.028C38.3394 12.028 37.9568 11.9347 37.7234 11.748C37.4901 11.5613 37.3734 11.2533 37.3734 10.824C37.3734 10.6373 37.4714 9.91867 37.6674 8.668C37.8634 7.41733 37.9614 6.42333 37.9614 5.686C37.9614 4.93933 37.8821 4.25333 37.7234 3.628C38.4048 3.84267 38.8808 4.15067 39.1514 4.552C39.4221 4.944 39.5574 5.39667 39.5574 5.91C39.5574 6.414 39.5014 7.002 39.3894 7.674C39.6974 6.62867 40.1828 5.742 40.8454 5.014C41.5081 4.286 42.1148 3.922 42.6654 3.922ZM50.6311 4.062C50.8084 4.062 50.9438 4.07133 51.0371 4.09C51.2798 4.13667 51.4104 4.30933 51.4291 4.608C50.4118 4.82267 49.5998 5.37333 48.9931 6.26C48.3958 7.14667 48.0971 8.07067 48.0971 9.032C48.0971 10.152 48.4378 10.712 49.1191 10.712C49.5298 10.712 49.8984 10.488 50.2251 10.04C50.8038 9.228 51.2098 7.95867 51.4431 6.232C51.6204 4.86933 51.9518 3.992 52.4371 3.6C52.6704 3.404 52.9598 3.25 53.3051 3.138C53.1744 4.12733 53.1091 4.874 53.1091 5.378C53.1091 9.11133 52.7078 11.916 51.9051 13.792C51.1118 15.668 49.8144 16.606 48.0131 16.606C47.2851 16.606 46.7158 16.41 46.3051 16.018C45.8944 15.6353 45.6891 15.2107 45.6891 14.744C45.6891 14.2867 45.8338 13.9087 46.1231 13.61C46.4124 13.3207 46.8184 13.176 47.3411 13.176C47.5558 13.176 47.7751 13.2227 47.9991 13.316C47.6444 13.5493 47.4671 13.9087 47.4671 14.394C47.4671 14.7207 47.5651 15.0007 47.7611 15.234C47.9571 15.4767 48.1951 15.598 48.4751 15.598C48.7644 15.598 49.0164 15.5373 49.2311 15.416C49.4458 15.304 49.6651 15.0987 49.8891 14.8C50.1131 14.5013 50.3091 14.128 50.4771 13.68C50.8598 12.644 51.0698 11.23 51.1071 9.438C50.8364 10.2407 50.4258 10.8847 49.8751 11.37C49.3244 11.8553 48.7644 12.098 48.1951 12.098C47.4764 12.098 46.9258 11.8273 46.5431 11.286C46.1698 10.7353 45.9831 10.0353 45.9831 9.186C45.9831 8.19667 46.2211 7.27733 46.6971 6.428C47.2291 5.448 47.9664 4.76667 48.9091 4.384C49.4318 4.16933 50.0058 4.062 50.6311 4.062ZM59.0751 1.668C58.6551 1.668 58.3051 1.79867 58.0251 2.06C57.7451 2.312 57.6051 2.67133 57.6051 3.138C57.6051 3.60467 57.7217 4.02467 57.9551 4.398C58.1977 4.762 58.4917 5.07467 58.8371 5.336C59.1917 5.588 59.5744 5.86333 59.9851 6.162C60.4051 6.46067 60.7877 6.74533 61.1331 7.016C61.4877 7.27733 61.7817 7.604 62.0151 7.996C62.2577 8.388 62.3791 8.80333 62.3791 9.242C62.3791 10.11 62.0244 10.8473 61.3151 11.454C60.6057 12.0513 59.6724 12.35 58.5151 12.35C57.3671 12.35 56.4571 12.1027 55.7851 11.608C55.1131 11.1133 54.7771 10.5533 54.7771 9.928C54.7771 9.30267 54.9637 8.81733 55.3371 8.472C55.7104 8.11733 56.1911 7.94 56.7791 7.94C56.9471 7.94 57.1057 7.95867 57.2551 7.996C56.9657 8.42533 56.8211 8.892 56.8211 9.396C56.8211 9.89067 56.9751 10.32 57.2831 10.684C57.5911 11.0387 57.9971 11.216 58.5011 11.216C59.0144 11.216 59.4437 11.0853 59.7891 10.824C60.1344 10.5533 60.3071 10.2127 60.3071 9.802C60.3071 9.382 60.1904 9.01333 59.9571 8.696C59.7237 8.37867 59.4344 8.108 59.0891 7.884C58.7437 7.65067 58.3657 7.38933 57.9551 7.1C57.5444 6.80133 57.1664 6.50267 56.8211 6.204C56.4757 5.90533 56.1864 5.52733 55.9531 5.07C55.7197 4.60333 55.6031 4.09467 55.6031 3.544C55.6031 2.65733 55.9251 1.95267 56.5691 1.43C57.2131 0.897999 58.0811 0.631999 59.1731 0.631999C60.2651 0.631999 61.0911 0.879333 61.6511 1.374C62.2204 1.85933 62.5051 2.382 62.5051 2.942C62.5051 3.49267 62.3277 3.95933 61.9731 4.342C61.6184 4.71533 61.1377 4.902 60.5311 4.902C60.3257 4.902 60.1251 4.88333 59.9291 4.846C60.3864 4.36067 60.6151 3.852 60.6151 3.32C60.6151 2.77867 60.4657 2.368 60.1671 2.088C59.8684 1.808 59.5044 1.668 59.0751 1.668ZM68.5238 4.986C67.9171 4.986 67.3758 5.39667 66.8998 6.218C66.4238 7.03 66.1858 7.842 66.1858 8.654C66.1858 10.3527 66.6244 11.202 67.5018 11.202C68.1271 11.202 68.6358 10.796 69.0278 9.984C69.4198 9.16267 69.6158 8.24333 69.6158 7.226C69.6158 5.73267 69.2518 4.986 68.5238 4.986ZM67.3338 3.726C67.4364 3.726 67.5298 3.75867 67.6138 3.824C67.7071 3.88 67.7538 3.94067 67.7538 4.006C66.8111 4.65933 66.2464 5.56933 66.0598 6.736C66.2558 6.21333 66.4938 5.76067 66.7738 5.378C67.0631 4.99533 67.3618 4.706 67.6698 4.51C68.2578 4.146 68.8318 3.964 69.3918 3.964C69.9518 3.964 70.4278 4.23933 70.8198 4.79C71.2118 5.34067 71.4078 6.078 71.4078 7.002C71.4078 8.038 71.1978 8.99 70.7778 9.858C70.3111 10.838 69.6484 11.5147 68.7898 11.888C68.3044 12.1027 67.7724 12.21 67.1938 12.21C66.3818 12.21 65.6724 11.8973 65.0658 11.272C64.4684 10.6373 64.1698 9.732 64.1698 8.556C64.1698 7.37067 64.4591 6.33 65.0378 5.434C65.6164 4.52867 66.3818 3.95933 67.3338 3.726ZM77.4444 4.986C76.8377 4.986 76.2964 5.39667 75.8204 6.218C75.3444 7.03 75.1064 7.842 75.1064 8.654C75.1064 10.3527 75.5451 11.202 76.4224 11.202C77.0477 11.202 77.5564 10.796 77.9484 9.984C78.3404 9.16267 78.5364 8.24333 78.5364 7.226C78.5364 5.73267 78.1724 4.986 77.4444 4.986ZM76.2544 3.726C76.3571 3.726 76.4504 3.75867 76.5344 3.824C76.6277 3.88 76.6744 3.94067 76.6744 4.006C75.7317 4.65933 75.1671 5.56933 74.9804 6.736C75.1764 6.21333 75.4144 5.76067 75.6944 5.378C75.9837 4.99533 76.2824 4.706 76.5904 4.51C77.1784 4.146 77.7524 3.964 78.3124 3.964C78.8724 3.964 79.3484 4.23933 79.7404 4.79C80.1324 5.34067 80.3284 6.078 80.3284 7.002C80.3284 8.038 80.1184 8.99 79.6984 9.858C79.2317 10.838 78.5691 11.5147 77.7104 11.888C77.2251 12.1027 76.6931 12.21 76.1144 12.21C75.3024 12.21 74.5931 11.8973 73.9864 11.272C73.3891 10.6373 73.0904 9.732 73.0904 8.556C73.0904 7.37067 73.3797 6.33 73.9584 5.434C74.5371 4.52867 75.3024 3.95933 76.2544 3.726ZM87.583 3.922C88.1337 3.922 88.5257 4.09467 88.759 4.44C89.0017 4.776 89.123 5.238 89.123 5.826C89.123 6.40467 89.0297 7.22133 88.843 8.276C88.6657 9.33067 88.577 10.1007 88.577 10.586C88.577 11.062 88.6377 11.412 88.759 11.636C88.8803 11.8507 89.0857 12.0373 89.375 12.196C89.2537 12.2053 89.081 12.21 88.857 12.21C88.073 12.21 87.513 12.0887 87.177 11.846C86.8503 11.6033 86.687 11.1787 86.687 10.572C86.687 10.2267 86.7803 9.55467 86.967 8.556C87.1537 7.548 87.247 6.79667 87.247 6.302C87.247 5.686 87.0603 5.378 86.687 5.378C86.4723 5.378 86.2297 5.504 85.959 5.756C85.6883 6.008 85.427 6.35333 85.175 6.792C84.923 7.22133 84.713 7.77667 84.545 8.458C84.377 9.13933 84.293 9.82067 84.293 10.502C84.293 11.174 84.321 11.6733 84.377 12C84.0783 12.0187 83.8823 12.028 83.789 12.028C83.257 12.028 82.8743 11.9347 82.641 11.748C82.4077 11.5613 82.291 11.2533 82.291 10.824C82.291 10.6373 82.389 9.91867 82.585 8.668C82.781 7.41733 82.879 6.42333 82.879 5.686C82.879 4.93933 82.7997 4.25333 82.641 3.628C83.3223 3.84267 83.7983 4.15067 84.069 4.552C84.3397 4.944 84.475 5.39667 84.475 5.91C84.475 6.414 84.419 7.002 84.307 7.674C84.615 6.62867 85.1003 5.742 85.763 5.014C86.4257 4.286 87.0323 3.922 87.583 3.922Z" fill="#5C6778"/>
</svg>
